<svg width="414" height="1329" viewBox="0 0 414 1329" fill="none" xmlns="http://www.w3.org/2000/svg">
<g opacity="0.1">
<path d="M340.248 879.143V957.231" stroke="white" stroke-width="8" stroke-miterlimit="10"/>
<path d="M304.219 918.187H376.277" stroke="white" stroke-width="8" stroke-miterlimit="10"/>
<path d="M88.0457 644.88L124.075 683.924V762.012L88.0457 722.968V644.88Z" stroke="white" stroke-miterlimit="10" stroke-linecap="round" stroke-linejoin="round"/>
<path d="M268.19 449.661L196.133 371.573V449.661L268.19 527.749V449.661Z" stroke="white" stroke-miterlimit="10" stroke-linecap="round" stroke-linejoin="round"/>
<path d="M556.422 59.223L268.19 371.574V683.924L556.422 371.574V59.223Z" stroke="white" stroke-miterlimit="10" stroke-linecap="round" stroke-linejoin="round"/>
<path d="M484.306 527.874L340.208 684.031L412.337 762.196L556.436 606.039L484.306 527.874Z" stroke="white" stroke-miterlimit="10" stroke-linecap="round" stroke-linejoin="round"/>
<path d="M268.19 683.924L124.075 840.099V762.012L268.19 605.836V683.924Z" stroke="white" stroke-miterlimit="10" stroke-linecap="round" stroke-linejoin="round"/>
<path d="M124.075 840.099L52.0168 918.187V840.099L124.075 762.011V840.099Z" stroke="white" stroke-miterlimit="10" stroke-linecap="round" stroke-linejoin="round"/>
<path d="M484.364 527.749L340.248 683.924V605.836L484.364 449.661V527.749Z" stroke="white" stroke-miterlimit="10" stroke-linecap="round" stroke-linejoin="round"/>
<path d="M394.292 313.008V625.358" stroke="white" stroke-width="2" stroke-miterlimit="10" stroke-linecap="square" stroke-linejoin="bevel"/>
<path d="M556.422 918.187L412.306 1074.36V918.187L556.422 762.011V918.187Z" stroke="white" stroke-miterlimit="10" stroke-linecap="round" stroke-linejoin="round"/>
<path d="M268.19 840.099L124.075 996.274V918.187L268.19 762.011V840.099Z" stroke="white" stroke-miterlimit="10" stroke-linecap="round" stroke-linejoin="round"/>
<path d="M196.133 762.012L268.19 683.924V762.012L196.133 840.099V762.012Z" stroke="white" stroke-miterlimit="10" stroke-linecap="round" stroke-linejoin="round"/>
<path d="M196.133 781.533L124.075 859.621V840.099L196.133 762.011V781.533Z" stroke="white" stroke-miterlimit="10" stroke-linecap="round" stroke-linejoin="round"/>
<path d="M196.133 820.577L124.075 898.665V879.143L196.133 801.055V820.577Z" stroke="white" stroke-miterlimit="10" stroke-linecap="round" stroke-linejoin="round"/>
<path d="M196.133 840.099L124.075 918.187V898.665L196.133 820.577V840.099Z" stroke="white" stroke-miterlimit="10" stroke-linecap="round" stroke-linejoin="round"/>
<path d="M196.133 801.055L124.075 879.143V859.621L196.133 781.533V801.055Z" stroke="white" stroke-miterlimit="10" stroke-linecap="round" stroke-linejoin="round"/>
<path d="M268.19 469.183L196.133 547.271V527.749L268.19 449.661V469.183Z" stroke="white" stroke-miterlimit="10" stroke-linecap="round" stroke-linejoin="round"/>
<path d="M196.133 586.314L268.19 508.227V488.705L196.133 566.793V586.314Z" stroke="white" stroke-miterlimit="10" stroke-linecap="round" stroke-linejoin="round"/>
<path d="M412.306 625.358L268.19 469.183V449.661L412.306 605.836V625.358Z" stroke="white" stroke-miterlimit="10" stroke-linecap="round" stroke-linejoin="round"/>
<path d="M268.19 508.227L412.306 664.402V644.88L268.19 488.705V508.227Z" stroke="white" stroke-miterlimit="10" stroke-linecap="round" stroke-linejoin="round"/>
<path d="M304.219 644.88L268.19 605.836V527.749L304.219 566.792V644.88Z" stroke="white" stroke-miterlimit="10" stroke-linecap="round" stroke-linejoin="round"/>
<path d="M412.306 683.924L304.219 566.793V644.88L412.306 762.012V683.924Z" stroke="white" stroke-miterlimit="10" stroke-linecap="round" stroke-linejoin="round"/>
<path d="M376.277 801.055L412.306 840.099V762.012L376.277 722.968V801.055Z" stroke="white" stroke-miterlimit="10" stroke-linecap="round" stroke-linejoin="round"/>
<path d="M340.248 762.012L376.277 801.055V722.968L340.248 683.924V762.012Z" stroke="white" stroke-miterlimit="10" stroke-linecap="round" stroke-linejoin="round"/>
<path d="M340.248 801.055L412.306 879.143V840.099L340.248 762.011V801.055Z" stroke="white" stroke-miterlimit="10" stroke-linecap="round" stroke-linejoin="round"/>
<path d="M340.248 840.099L412.306 918.187V879.143L340.248 801.055V840.099Z" stroke="white" stroke-miterlimit="10" stroke-linecap="round" stroke-linejoin="round"/>
<path d="M268.19 605.836L340.248 683.924V840.099L268.19 762.012V605.836Z" stroke="white" stroke-miterlimit="10" stroke-linecap="round" stroke-linejoin="round"/>
<path d="M556.422 527.749L412.306 683.924V840.099L556.422 683.924V527.749Z" stroke="white" stroke-miterlimit="10" stroke-linecap="round" stroke-linejoin="round"/>
<path d="M556.363 684.048L412.264 840.206L484.393 918.37L628.492 762.213L556.363 684.048Z" stroke="white" stroke-miterlimit="10" stroke-linecap="round" stroke-linejoin="round"/>
<path d="M268.19 293.486L196.133 215.398V293.486L268.19 371.574V293.486Z" stroke="white" stroke-miterlimit="10" stroke-linecap="round" stroke-linejoin="round"/>
<path d="M292.51 267.131L499.226 43.1176" stroke="white" stroke-width="2" stroke-linecap="round" stroke-linejoin="round"/>
<path d="M88.0457 752.251V776.653" stroke="white" stroke-width="2" stroke-linecap="round" stroke-linejoin="round"/>
<path d="M88.0457 547.27V527.749H106.06L88.0457 547.27Z" fill="white"/>
<path d="M124.075 762.011L412.306 1074.36V1308.62L124.075 996.274V762.011Z" stroke="white" stroke-miterlimit="10" stroke-linecap="round" stroke-linejoin="round"/>
<path d="M124.075 996.275L268.19 1152.45V1074.36L124.075 918.187V996.275Z" stroke="white" stroke-miterlimit="10" stroke-linecap="round" stroke-linejoin="round"/>
<path d="M412.306 1074.36L340.248 1152.45V996.275L412.306 918.187V1074.36Z" stroke="white" stroke-miterlimit="10" stroke-linecap="round" stroke-linejoin="round"/>
<path d="M123.9 762.011L105.907 781.51L250.006 937.667L267.999 918.169L123.9 762.011Z" stroke="white" stroke-miterlimit="10" stroke-linecap="round" stroke-linejoin="round"/>
<path d="M106.06 859.621L250.176 1015.8V937.709L106.06 781.533V859.621Z" stroke="white" stroke-miterlimit="10" stroke-linecap="round" stroke-linejoin="round"/>
<path d="M268.19 996.275L250.176 1015.8V937.709L268.19 918.187V996.275Z" stroke="white" stroke-miterlimit="10" stroke-linecap="round" stroke-linejoin="round"/>
<path d="M265.038 992.858L125.651 841.808" stroke="white" stroke-linecap="round" stroke-linejoin="round"/>
<path d="M108.988 856.449L122.498 841.808" stroke="white" stroke-linecap="round" stroke-linejoin="round"/>
<path d="M124.075 835.219V764.452" stroke="white" stroke-linecap="round" stroke-linejoin="round"/>
<path d="M304.219 649.761V798.615" stroke="white" stroke-linecap="round" stroke-linejoin="round"/>
<path d="M343.401 999.691L410.73 1072.65" stroke="white" stroke-linecap="round" stroke-linejoin="round"/>
<path d="M271.343 446.245L338.672 373.282" stroke="white" stroke-linecap="round" stroke-linejoin="round"/>
<path d="M340.248 376.454V447.221" stroke="white" stroke-linecap="round" stroke-linejoin="round"/>
<path d="M337.096 453.078L269.767 526.041" stroke="white" stroke-linecap="round" stroke-linejoin="round"/>
<path d="M55.1693 875.727L104.484 822.286" stroke="white" stroke-linecap="round" stroke-linejoin="round"/>
<path d="M52.0168 951.374V1152.45C52.0168 1192.47 65.978 1232.49 94.1256 1262.99C122.273 1293.5 159.203 1308.62 196.133 1308.62H383.933" stroke="white" stroke-linecap="round" stroke-linejoin="round"/>
<path d="M46.3872 948.202L52.0168 937.709L57.6463 948.202H46.3872Z" fill="white"/>
<path d="M384.609 1314.73L394.292 1308.62L384.609 1302.52V1314.73Z" fill="white"/>
<path d="M196.133 182.211V22.6194" stroke="white" stroke-linecap="round" stroke-linejoin="round"/>
<path d="M200.636 20.1792H492.02" stroke="white" stroke-linecap="round" stroke-linejoin="round"/>
<path d="M201.762 185.383L196.133 195.876L190.503 185.383H201.762Z" fill="white"/>
<path d="M268.19 376.454C270.678 376.454 272.694 374.269 272.694 371.574C272.694 368.878 270.678 366.693 268.19 366.693C265.703 366.693 263.687 368.878 263.687 371.574C263.687 374.269 265.703 376.454 268.19 376.454Z" fill="white"/>
<path d="M412.306 1079.24C414.793 1079.24 416.81 1077.06 416.81 1074.36C416.81 1071.67 414.793 1069.48 412.306 1069.48C409.819 1069.48 407.802 1071.67 407.802 1074.36C407.802 1077.06 409.819 1079.24 412.306 1079.24Z" fill="white"/>
<path d="M412.306 1313.51C414.793 1313.51 416.81 1311.32 416.81 1308.63C416.81 1305.93 414.793 1303.74 412.306 1303.74C409.819 1303.74 407.802 1305.93 407.802 1308.63C407.802 1311.32 409.819 1313.51 412.306 1313.51Z" fill="white"/>
<path d="M124.075 1001.15C126.562 1001.15 128.578 998.97 128.578 996.274C128.578 993.579 126.562 991.394 124.075 991.394C121.587 991.394 119.571 993.579 119.571 996.274C119.571 998.97 121.587 1001.15 124.075 1001.15Z" fill="white"/>
<path d="M268.19 1157.33C270.678 1157.33 272.694 1155.14 272.694 1152.45C272.694 1149.75 270.678 1147.57 268.19 1147.57C265.703 1147.57 263.687 1149.75 263.687 1152.45C263.687 1155.14 265.703 1157.33 268.19 1157.33Z" fill="white"/>
<path d="M124.075 923.067C126.562 923.067 128.578 920.882 128.578 918.187C128.578 915.492 126.562 913.307 124.075 913.307C121.587 913.307 119.571 915.492 119.571 918.187C119.571 920.882 121.587 923.067 124.075 923.067Z" fill="white"/>
<path d="M124.075 884.024C126.562 884.024 128.578 881.838 128.578 879.143C128.578 876.448 126.562 874.263 124.075 874.263C121.587 874.263 119.571 876.448 119.571 879.143C119.571 881.838 121.587 884.024 124.075 884.024Z" fill="white"/>
<path d="M106.06 864.502C108.547 864.502 110.564 862.317 110.564 859.621C110.564 856.926 108.547 854.741 106.06 854.741C103.573 854.741 101.557 856.926 101.557 859.621C101.557 862.317 103.573 864.502 106.06 864.502Z" fill="white"/>
<path d="M52.0168 923.067C54.5041 923.067 56.5204 920.882 56.5204 918.187C56.5204 915.492 54.5041 913.307 52.0168 913.307C49.5295 913.307 47.5132 915.492 47.5132 918.187C47.5132 920.882 49.5295 923.067 52.0168 923.067Z" fill="white"/>
<path d="M52.0168 844.98C54.5041 844.98 56.5204 842.795 56.5204 840.099C56.5204 837.404 54.5041 835.219 52.0168 835.219C49.5295 835.219 47.5132 837.404 47.5132 840.099C47.5132 842.795 49.5295 844.98 52.0168 844.98Z" fill="white"/>
<path d="M124.075 766.892C126.562 766.892 128.578 764.707 128.578 762.012C128.578 759.316 126.562 757.131 124.075 757.131C121.587 757.131 119.571 759.316 119.571 762.012C119.571 764.707 121.587 766.892 124.075 766.892Z" fill="white"/>
<path d="M88.0457 727.848C90.533 727.848 92.5493 725.663 92.5493 722.968C92.5493 720.272 90.533 718.087 88.0457 718.087C85.5585 718.087 83.5421 720.272 83.5421 722.968C83.5421 725.663 85.5585 727.848 88.0457 727.848Z" fill="white"/>
<path d="M88.0457 649.76C90.533 649.76 92.5493 647.575 92.5493 644.88C92.5493 642.185 90.533 640 88.0457 640C85.5585 640 83.5421 642.185 83.5421 644.88C83.5421 647.575 85.5585 649.76 88.0457 649.76Z" fill="white"/>
<path d="M124.075 688.805C126.562 688.805 128.578 686.62 128.578 683.924C128.578 681.229 126.562 679.044 124.075 679.044C121.587 679.044 119.571 681.229 119.571 683.924C119.571 686.62 121.587 688.805 124.075 688.805Z" fill="white"/>
<path d="M268.19 610.717C270.678 610.717 272.694 608.532 272.694 605.836C272.694 603.141 270.678 600.956 268.19 600.956C265.703 600.956 263.687 603.141 263.687 605.836C263.687 608.532 265.703 610.717 268.19 610.717Z" fill="white"/>
<path d="M268.19 532.629C270.678 532.629 272.694 530.444 272.694 527.749C272.694 525.053 270.678 522.868 268.19 522.868C265.703 522.868 263.687 525.053 263.687 527.749C263.687 530.444 265.703 532.629 268.19 532.629Z" fill="white"/>
<path d="M196.133 454.541C198.62 454.541 200.636 452.356 200.636 449.661C200.636 446.966 198.62 444.781 196.133 444.781C193.645 444.781 191.629 446.966 191.629 449.661C191.629 452.356 193.645 454.541 196.133 454.541Z" fill="white"/>
<path d="M196.133 376.454C198.62 376.454 200.636 374.269 200.636 371.574C200.636 368.878 198.62 366.693 196.133 366.693C193.645 366.693 191.629 368.878 191.629 371.574C191.629 374.269 193.645 376.454 196.133 376.454Z" fill="white"/>
<path d="M268.19 454.541C270.678 454.541 272.694 452.356 272.694 449.661C272.694 446.966 270.678 444.781 268.19 444.781C265.703 444.781 263.687 446.966 263.687 449.661C263.687 452.356 265.703 454.541 268.19 454.541Z" fill="white"/>
<path d="M196.133 298.366C198.62 298.366 200.636 296.181 200.636 293.486C200.636 290.79 198.62 288.605 196.133 288.605C193.645 288.605 191.629 290.79 191.629 293.486C191.629 296.181 193.645 298.366 196.133 298.366Z" fill="white"/>
<path d="M196.133 220.279C198.62 220.279 200.636 218.094 200.636 215.398C200.636 212.703 198.62 210.518 196.133 210.518C193.645 210.518 191.629 212.703 191.629 215.398C191.629 218.094 193.645 220.279 196.133 220.279Z" fill="white"/>
<path d="M268.19 298.366C270.678 298.366 272.694 296.181 272.694 293.486C272.694 290.79 270.678 288.605 268.19 288.605C265.703 288.605 263.687 290.79 263.687 293.486C263.687 296.181 265.703 298.366 268.19 298.366Z" fill="white"/>
<path d="M340.248 1157.33C342.736 1157.33 344.752 1155.14 344.752 1152.45C344.752 1149.75 342.736 1147.57 340.248 1147.57C337.761 1147.57 335.745 1149.75 335.745 1152.45C335.745 1155.14 337.761 1157.33 340.248 1157.33Z" fill="white"/>
<path d="M340.248 1001.15C342.736 1001.15 344.752 998.97 344.752 996.274C344.752 993.579 342.736 991.394 340.248 991.394C337.761 991.394 335.745 993.579 335.745 996.274C335.745 998.97 337.761 1001.15 340.248 1001.15Z" fill="white"/>
<path d="M412.306 923.067C414.793 923.067 416.81 920.882 416.81 918.187C416.81 915.492 414.793 913.307 412.306 913.307C409.819 913.307 407.802 915.492 407.802 918.187C407.802 920.882 409.819 923.067 412.306 923.067Z" fill="white"/>
<path d="M412.306 844.98C414.793 844.98 416.81 842.795 416.81 840.099C416.81 837.404 414.793 835.219 412.306 835.219C409.819 835.219 407.802 837.404 407.802 840.099C407.802 842.795 409.819 844.98 412.306 844.98Z" fill="white"/>
<path d="M412.306 766.892C414.793 766.892 416.81 764.707 416.81 762.012C416.81 759.316 414.793 757.131 412.306 757.131C409.819 757.131 407.802 759.316 407.802 762.012C407.802 764.707 409.819 766.892 412.306 766.892Z" fill="white"/>
<path d="M412.306 688.805C414.793 688.805 416.81 686.62 416.81 683.924C416.81 681.229 414.793 679.044 412.306 679.044C409.819 679.044 407.802 681.229 407.802 683.924C407.802 686.62 409.819 688.805 412.306 688.805Z" fill="white"/>
<path d="M340.248 688.805C342.736 688.805 344.752 686.62 344.752 683.924C344.752 681.229 342.736 679.044 340.248 679.044C337.761 679.044 335.745 681.229 335.745 683.924C335.745 686.62 337.761 688.805 340.248 688.805Z" fill="white"/>
<path d="M340.248 766.892C342.736 766.892 344.752 764.707 344.752 762.012C344.752 759.316 342.736 757.131 340.248 757.131C337.761 757.131 335.745 759.316 335.745 762.012C335.745 764.707 337.761 766.892 340.248 766.892Z" fill="white"/>
<path d="M340.248 844.98C342.736 844.98 344.752 842.795 344.752 840.099C344.752 837.404 342.736 835.219 340.248 835.219C337.761 835.219 335.745 837.404 335.745 840.099C335.745 842.795 337.761 844.98 340.248 844.98Z" fill="white"/>
<path d="M268.19 844.98C270.678 844.98 272.694 842.795 272.694 840.099C272.694 837.404 270.678 835.219 268.19 835.219C265.703 835.219 263.687 837.404 263.687 840.099C263.687 842.795 265.703 844.98 268.19 844.98Z" fill="white"/>
<path d="M268.19 766.892C270.678 766.892 272.694 764.707 272.694 762.012C272.694 759.316 270.678 757.131 268.19 757.131C265.703 757.131 263.687 759.316 263.687 762.012C263.687 764.707 265.703 766.892 268.19 766.892Z" fill="white"/>
<path d="M268.19 688.805C270.678 688.805 272.694 686.62 272.694 683.924C272.694 681.229 270.678 679.044 268.19 679.044C265.703 679.044 263.687 681.229 263.687 683.924C263.687 686.62 265.703 688.805 268.19 688.805Z" fill="white"/>
<path d="M144.791 453.809C145.692 454.786 146.818 455.518 148.394 455.518C150.196 455.518 151.547 454.053 151.547 451.857C151.547 449.661 150.421 448.441 148.394 448.441C147.493 448.441 146.818 448.685 145.917 449.417L145.016 448.685L145.467 441.12H152.673V442.828H147.043L146.593 447.465C147.268 446.977 147.944 446.733 148.845 446.733C151.322 446.733 153.348 448.197 153.348 451.613C153.348 455.03 151.096 456.982 148.619 456.982C146.368 456.982 145.016 456.006 143.891 454.786L144.791 453.809Z" fill="white"/>
<path d="M165.058 452.589H163.031V456.982H161.229V452.589H154.699V451.369L160.779 441.364H162.806V451.125H164.832V452.589H165.058ZM161.455 451.125V446.733C161.455 446.001 161.455 444.536 161.455 443.804C161.004 444.536 160.779 445.269 160.329 446.001L156.951 451.369H161.455V451.125Z" fill="white"/>
<path d="M168.66 454.297C169.336 454.297 170.012 455.03 170.012 455.762C170.012 456.738 169.336 457.226 168.66 457.226C167.985 457.226 167.309 456.494 167.309 455.762C167.309 454.786 167.76 454.297 168.66 454.297Z" fill="white"/>
<path d="M172.939 453.809C173.84 454.786 174.966 455.518 176.542 455.518C178.343 455.518 179.694 454.053 179.694 451.857C179.694 449.661 178.568 448.441 176.542 448.441C175.641 448.441 174.966 448.685 174.065 449.417L173.164 448.685L173.614 441.12H180.82V442.828H175.191L174.74 447.465C175.416 446.977 176.091 446.733 176.992 446.733C179.469 446.733 181.496 448.197 181.496 451.613C181.496 455.03 179.244 456.982 176.767 456.982C174.515 456.982 173.164 456.006 172.038 454.786L172.939 453.809Z" fill="white"/>
<path d="M45.9368 647.809H43.9102V652.201H42.1087V647.809H35.5785V646.588L41.6584 636.583H43.685V646.344H45.7116V647.809H45.9368ZM42.1087 646.344V641.952C42.1087 641.22 42.1087 639.756 42.1087 639.024C41.6584 639.756 41.4332 640.488 40.9828 641.22L37.6051 646.588H42.1087V646.344Z" fill="white"/>
<path d="M54.7189 638.291H47.5131V636.583H56.7455V637.803C53.3678 642.44 52.6922 646.1 52.467 652.201H50.6656C50.6656 646.344 51.7915 642.684 54.7189 638.291Z" fill="white"/>
<path d="M60.5735 649.517C61.2491 649.517 61.9246 650.249 61.9246 650.981C61.9246 651.957 61.2491 652.445 60.5735 652.445C59.898 652.445 59.2224 651.713 59.2224 650.981C59.2224 650.005 59.6728 649.517 60.5735 649.517Z" fill="white"/>
<path d="M72.2829 639.268C71.6074 638.536 70.9318 638.048 70.0311 638.048C68.0045 638.048 66.4282 639.756 66.203 644.636C67.1037 643.416 68.4548 642.684 69.5807 642.684C72.0577 642.684 73.634 644.392 73.634 647.564C73.634 650.493 71.6074 652.445 69.3556 652.445C66.6534 652.445 64.4016 650.005 64.4016 644.88C64.4016 638.536 67.1037 636.339 69.8059 636.339C71.3822 636.339 72.5081 637.071 73.1836 638.048L72.2829 639.268ZM71.8325 647.564C71.8325 645.612 70.9318 644.392 69.1304 644.392C68.2297 644.392 67.1037 644.88 66.203 646.344C66.4282 649.273 67.5541 650.981 69.3556 650.981C70.7066 650.981 71.8325 649.517 71.8325 647.564Z" fill="white"/>
<path d="M2.92735 917.455C1.80145 916.479 0.900723 915.503 0.900723 913.795C0.900723 911.355 2.70217 909.89 4.95398 909.89C7.43097 909.89 9.00723 911.599 9.00723 914.039C9.00723 915.747 7.88133 916.967 6.98061 917.699C8.33169 918.431 9.45759 919.651 9.45759 921.603C9.45759 923.8 7.65615 925.752 4.7288 925.752C2.02663 925.752 0 924.044 0 921.603C0.225181 919.407 1.57627 918.187 2.92735 917.455ZM4.95398 924.288C6.53024 924.288 7.65615 923.068 7.65615 921.603C7.65615 919.651 5.8547 918.919 3.82807 917.943C2.70217 918.675 1.80145 919.895 1.80145 921.359C1.80145 923.068 3.15253 924.288 4.95398 924.288ZM7.43097 913.795C7.43097 912.331 6.53024 911.111 4.95398 911.111C3.60289 911.111 2.70217 912.087 2.70217 913.551C2.70217 915.503 4.27844 916.235 6.07988 916.967C6.98061 915.991 7.43097 915.015 7.43097 913.795Z" fill="white"/>
<path d="M11.4842 917.699C11.4842 912.574 13.2857 909.646 15.9878 909.646C18.9152 909.646 20.4915 912.33 20.4915 917.699C20.4915 922.823 18.69 925.752 15.9878 925.752C13.2857 925.752 11.4842 922.823 11.4842 917.699ZM18.9152 917.699C18.9152 913.063 17.7893 911.354 16.213 911.354C14.6368 911.354 13.5109 913.307 13.5109 917.699C13.5109 922.335 14.6368 924.288 16.213 924.288C17.7893 924.288 18.9152 922.335 18.9152 917.699Z" fill="white"/>
<path d="M24.5447 922.823C25.2202 922.823 25.8958 923.555 25.8958 924.288C25.8958 925.264 25.2202 925.752 24.5447 925.752C23.8691 925.752 23.1936 925.02 23.1936 924.288C23.1936 923.311 23.644 922.823 24.5447 922.823Z" fill="white"/>
<path d="M29.0483 923.8H32.426V912.33H29.7238V911.11C31.0749 910.866 31.9756 910.378 32.6512 909.89H34.0022V923.8H36.9296V925.508H28.8231V923.8H29.0483Z" fill="white"/>
<path d="M72.9585 1000.42C73.8593 1001.4 74.9852 1002.37 76.5614 1002.37C78.3629 1002.37 79.4888 1001.15 79.4888 999.447C79.4888 997.494 78.3629 996.274 74.9852 996.274V994.81C78.1377 994.81 79.0384 993.59 79.0384 991.882C79.0384 990.418 78.1377 989.442 76.5614 989.442C75.4355 989.442 74.3096 990.174 73.4089 990.906L72.5082 989.686C73.6341 988.465 74.9852 987.733 76.5614 987.733C79.0384 987.733 80.8399 989.198 80.8399 991.638C80.8399 993.59 79.714 994.81 78.1377 995.298C79.9392 995.786 81.2902 997.006 81.2902 999.203C81.2902 1001.89 79.2636 1003.59 76.5614 1003.59C74.3096 1003.59 72.7334 1002.62 71.8326 1001.4L72.9585 1000.42Z" fill="white"/>
<path d="M84.2175 1001.89H87.5953V990.418H84.8931V989.197C86.2442 988.953 87.1449 988.465 87.8204 987.977H89.1715V1001.89H92.0989V1003.59H83.9924V1001.89H84.2175Z" fill="white"/>
<path d="M96.6025 1000.91C97.278 1000.91 97.9536 1001.64 97.9536 1002.37C97.9536 1003.35 97.278 1003.84 96.6025 1003.84C95.9269 1003.84 95.2514 1003.11 95.2514 1002.37C95.2514 1001.4 95.7018 1000.91 96.6025 1000.91Z" fill="white"/>
<path d="M102.908 995.542C101.782 994.566 100.881 993.59 100.881 991.882C100.881 989.441 102.682 987.977 104.934 987.977C107.411 987.977 108.987 989.685 108.987 992.126C108.987 993.834 107.862 995.054 106.961 995.786C108.312 996.518 109.438 997.738 109.438 999.69C109.438 1001.89 107.636 1003.84 104.709 1003.84C102.007 1003.84 99.9803 1002.13 99.9803 999.69C100.205 997.494 101.557 996.274 102.908 995.542ZM104.934 1002.37C106.511 1002.37 107.636 1001.15 107.636 999.69C107.636 997.738 105.835 997.006 103.808 996.03C102.682 996.762 101.782 997.982 101.782 999.446C102.007 1001.15 103.358 1002.37 104.934 1002.37ZM107.411 991.882C107.411 990.418 106.511 989.197 104.934 989.197C103.583 989.197 102.682 990.174 102.682 991.638C102.682 993.59 104.259 994.322 106.06 995.054C106.961 994.078 107.411 993.102 107.411 991.882Z" fill="white"/>
<path d="M138.486 690.025C142.765 685.388 145.242 682.46 145.242 680.02C145.242 678.312 144.341 677.091 142.539 677.091C141.414 677.091 140.288 677.824 139.387 679.044L138.261 677.824C139.387 676.359 140.738 675.383 142.539 675.383C145.242 675.383 146.818 677.091 146.818 680.02C146.818 682.948 144.341 685.876 140.963 689.781C141.639 689.781 142.539 689.537 143.44 689.537H147.493V691.245H138.261V690.025H138.486Z" fill="white"/>
<path d="M152.447 683.192C151.322 682.216 150.421 681.24 150.421 679.532C150.421 677.091 152.222 675.627 154.474 675.627C156.951 675.627 158.527 677.335 158.527 679.776C158.527 681.484 157.401 682.704 156.501 683.436C157.852 684.168 158.978 685.388 158.978 687.34C158.978 689.537 157.176 691.489 154.249 691.489C151.547 691.489 149.52 689.781 149.52 687.34C149.745 685.144 151.096 683.924 152.447 683.192ZM154.474 690.025C156.05 690.025 157.176 688.804 157.176 687.34C157.176 685.388 155.375 684.656 153.348 683.68C152.222 684.412 151.322 685.632 151.322 687.096C151.322 688.804 152.673 690.025 154.474 690.025ZM156.951 679.532C156.951 678.067 156.05 676.847 154.474 676.847C153.123 676.847 152.222 677.823 152.222 679.288C152.222 681.24 153.799 681.972 155.6 682.704C156.275 681.728 156.951 680.752 156.951 679.532Z" fill="white"/>
<path d="M162.806 688.561C163.481 688.561 164.157 689.293 164.157 690.025C164.157 691.001 163.481 691.489 162.806 691.489C162.13 691.489 161.455 690.757 161.455 690.025C161.455 689.049 161.905 688.561 162.806 688.561Z" fill="white"/>
<path d="M176.091 686.852H174.065V691.245H172.263V686.852H165.733V685.632L171.813 675.627H173.84V685.388H175.866V686.852H176.091ZM172.489 685.388V680.996C172.489 680.264 172.489 678.8 172.489 678.067C172.038 678.8 171.813 679.532 171.363 680.264L167.985 685.632H172.489V685.388Z" fill="white"/>
</g>
</svg>
