<svg width="438" height="1328" viewBox="0 0 438 1328" fill="none" xmlns="http://www.w3.org/2000/svg">
<g opacity="0.1">
<path d="M133.393 19.5218L169.422 58.5656V214.741L133.393 175.697V19.5218Z" stroke="white" stroke-miterlimit="10" stroke-linecap="round" stroke-linejoin="round"/>
<path d="M241.48 292.829L277.509 331.872V409.96L241.48 370.916V292.829Z" stroke="white" stroke-miterlimit="10" stroke-linecap="round" stroke-linejoin="round"/>
<path d="M385.595 839.442L241.48 683.267V761.354L385.595 917.529V839.442Z" stroke="white" stroke-miterlimit="10" stroke-linecap="round" stroke-linejoin="round"/>
<path d="M169.422 527.091L277.509 409.96V566.135L169.422 683.267V527.091Z" stroke="white" stroke-miterlimit="10" stroke-linecap="round" stroke-linejoin="round"/>
<path d="M169.422 58.5656L-118.81 370.916V683.267L169.422 370.916V58.5656Z" stroke="white" stroke-miterlimit="10" stroke-linecap="round" stroke-linejoin="round"/>
<path d="M97.3065 527.216L-46.7925 683.373L25.3366 761.538L169.436 605.381L97.3065 527.216Z" stroke="white" stroke-miterlimit="10" stroke-linecap="round" stroke-linejoin="round"/>
<path d="M97.364 527.091L-46.7517 683.267V605.179L97.364 449.004V527.091Z" stroke="white" stroke-miterlimit="10" stroke-linecap="round" stroke-linejoin="round"/>
<path d="M7.29163 312.35V624.701" stroke="white" stroke-width="2" stroke-miterlimit="10" stroke-linecap="square" stroke-linejoin="bevel"/>
<path d="M169.422 917.529L25.3062 1073.7V917.529L169.422 761.354V917.529Z" stroke="white" stroke-miterlimit="10" stroke-linecap="round" stroke-linejoin="round"/>
<path d="M169.422 605.179L313.538 761.354V683.266L169.422 527.091V605.179Z" stroke="white" stroke-miterlimit="10" stroke-linecap="round" stroke-linejoin="round"/>
<path d="M97.3639 527.091L169.422 605.179V527.091L97.3639 449.004V527.091Z" stroke="white" stroke-miterlimit="10" stroke-linecap="round" stroke-linejoin="round"/>
<path d="M169.422 761.354L313.538 917.529V839.442L169.422 683.267V761.354Z" stroke="white" stroke-miterlimit="10" stroke-linecap="round" stroke-linejoin="round"/>
<path d="M25.3062 624.701L-118.81 468.526V449.004L25.3062 605.179V624.701Z" stroke="white" stroke-miterlimit="10" stroke-linecap="round" stroke-linejoin="round"/>
<path d="M-118.81 507.569L25.3062 663.745V644.223L-118.81 488.048V507.569Z" stroke="white" stroke-miterlimit="10" stroke-linecap="round" stroke-linejoin="round"/>
<path d="M25.3062 683.267L-82.7806 566.135V644.223L25.3062 761.354V683.267Z" stroke="white" stroke-miterlimit="10" stroke-linecap="round" stroke-linejoin="round"/>
<path d="M-10.7228 800.398L25.3061 839.442V761.354L-10.7228 722.31V800.398Z" stroke="white" stroke-miterlimit="10" stroke-linecap="round" stroke-linejoin="round"/>
<path d="M-46.7517 800.398L25.3062 878.486V839.442L-46.7517 761.354V800.398Z" stroke="white" stroke-miterlimit="10" stroke-linecap="round" stroke-linejoin="round"/>
<path d="M-46.7517 839.442L25.3062 917.529V878.486L-46.7517 800.398V839.442Z" stroke="white" stroke-miterlimit="10" stroke-linecap="round" stroke-linejoin="round"/>
<path d="M169.422 527.091L25.3062 683.266V839.442L169.422 683.266V527.091Z" stroke="white" stroke-miterlimit="10" stroke-linecap="round" stroke-linejoin="round"/>
<path d="M169.363 683.391L25.2637 839.548L97.3929 917.713L241.492 761.556L169.363 683.391Z" stroke="white" stroke-miterlimit="10" stroke-linecap="round" stroke-linejoin="round"/>
<path d="M241.48 683.267L169.422 761.354V839.442L241.48 761.354V683.267Z" stroke="white" stroke-miterlimit="10" stroke-linecap="round" stroke-linejoin="round"/>
<path d="M241.48 761.354L97.3639 917.529V995.617L241.48 839.442V761.354Z" stroke="white" stroke-miterlimit="10" stroke-linecap="round" stroke-linejoin="round"/>
<path d="M169.422 839.442L97.3639 917.529V839.442L169.422 761.354V839.442Z" stroke="white" stroke-miterlimit="10" stroke-linecap="round" stroke-linejoin="round"/>
<path d="M142.4 351.394V370.916" stroke="white" stroke-width="2" stroke-miterlimit="10"/>
<path d="M133.393 361.155H151.407" stroke="white" stroke-width="2" stroke-miterlimit="10"/>
<path d="M313.538 800.398L169.422 956.573V917.529L313.538 761.354V800.398Z" stroke="white" stroke-miterlimit="10" stroke-linecap="round" stroke-linejoin="round"/>
<path d="M313.538 878.486L169.422 1034.66V995.617L313.538 839.442V878.486Z" stroke="white" stroke-miterlimit="10" stroke-linecap="round" stroke-linejoin="round"/>
<path d="M205.451 97.6095L61.335 253.785V409.96L205.451 253.785V97.6095Z" stroke="white" stroke-miterlimit="10" stroke-linecap="round" stroke-linejoin="round"/>
<path d="M193.516 397.027L220.538 426.31" stroke="white" stroke-width="2" stroke-linecap="round" stroke-linejoin="round"/>
<path d="M-94.49 266.474L112.226 42.4601" stroke="white" stroke-width="2" stroke-linecap="round" stroke-linejoin="round"/>
<path d="M277.509 595.418V619.82" stroke="white" stroke-width="2" stroke-linecap="round" stroke-linejoin="round"/>
<path d="M361.276 943.884L46.4731 1285.03" stroke="white" stroke-width="2" stroke-linecap="round" stroke-linejoin="round"/>
<path d="M133.393 1073.7C143.342 1073.7 151.407 1064.96 151.407 1054.18C151.407 1043.4 143.342 1034.66 133.393 1034.66C123.444 1034.66 115.378 1043.4 115.378 1054.18C115.378 1064.96 123.444 1073.7 133.393 1073.7Z" stroke="white" stroke-miterlimit="10" stroke-linecap="round" stroke-linejoin="round"/>
<path d="M97.364 1112.75C107.313 1112.75 115.378 1104.01 115.378 1093.23C115.378 1082.45 107.313 1073.7 97.364 1073.7C87.4148 1073.7 79.3495 1082.45 79.3495 1093.23C79.3495 1104.01 87.4148 1112.75 97.364 1112.75Z" stroke="white" stroke-miterlimit="10" stroke-linecap="round" stroke-linejoin="round"/>
<path d="M61.335 1151.79C71.2841 1151.79 79.3495 1143.05 79.3495 1132.27C79.3495 1121.49 71.2841 1112.75 61.335 1112.75C51.3859 1112.75 43.3206 1121.49 43.3206 1132.27C43.3206 1143.05 51.3859 1151.79 61.335 1151.79Z" stroke="white" stroke-miterlimit="10" stroke-linecap="round" stroke-linejoin="round"/>
<path d="M169.422 605.179C209.218 605.179 241.48 570.218 241.48 527.091C241.48 483.965 209.218 449.004 169.422 449.004C129.625 449.004 97.3639 483.965 97.3639 527.091C97.3639 570.218 129.625 605.179 169.422 605.179Z" stroke="white" stroke-miterlimit="10" stroke-linecap="round" stroke-linejoin="round"/>
<path d="M304.53 536.852V556.374" stroke="white" stroke-width="2" stroke-miterlimit="10"/>
<path d="M295.523 546.613H313.538" stroke="white" stroke-width="2" stroke-miterlimit="10"/>
<path d="M304.53 497.808V517.33" stroke="white" stroke-width="2" stroke-miterlimit="10"/>
<path d="M295.523 507.569H313.538" stroke="white" stroke-width="2" stroke-miterlimit="10"/>
<path d="M304.53 458.765V478.287" stroke="white" stroke-width="2" stroke-miterlimit="10"/>
<path d="M295.523 468.526H313.538" stroke="white" stroke-width="2" stroke-miterlimit="10"/>
<path d="M304.53 419.721V439.243" stroke="white" stroke-width="2" stroke-miterlimit="10"/>
<path d="M295.523 429.482H313.538" stroke="white" stroke-width="2" stroke-miterlimit="10"/>
<path d="M304.53 380.677V400.199" stroke="white" stroke-width="2" stroke-miterlimit="10"/>
<path d="M295.523 390.438H313.538" stroke="white" stroke-width="2" stroke-miterlimit="10"/>
<path d="M304.53 341.633V361.155" stroke="white" stroke-width="2" stroke-miterlimit="10"/>
<path d="M295.523 351.394H313.538" stroke="white" stroke-width="2" stroke-miterlimit="10"/>
<path d="M331.552 683.267H385.595" stroke="white" stroke-width="4" stroke-miterlimit="10" stroke-linecap="square"/>
<path d="M331.552 702.788H385.595" stroke="white" stroke-width="4" stroke-miterlimit="10" stroke-linecap="square"/>
<path d="M331.552 722.31H385.595" stroke="white" stroke-width="4" stroke-miterlimit="10" stroke-linecap="square"/>
<path d="M-262.925 761.354L25.3062 1073.7V1307.97L-262.925 995.617V761.354Z" stroke="white" stroke-miterlimit="10" stroke-linecap="round" stroke-linejoin="round"/>
<path d="M25.3062 1073.7L-46.7517 1151.79V995.617L25.3062 917.53V1073.7Z" stroke="white" stroke-miterlimit="10" stroke-linecap="round" stroke-linejoin="round"/>
<path d="M169.422 141.534V290.388" stroke="white" stroke-linecap="round" stroke-linejoin="round"/>
<path d="M-43.5992 999.033L23.7299 1072" stroke="white" stroke-linecap="round" stroke-linejoin="round"/>
<path d="M64.4875 874.825L95.7877 841.15" stroke="white" stroke-linecap="round" stroke-linejoin="round"/>
<path d="M292.596 894.835L279.085 880.194" stroke="white" stroke-linecap="round" stroke-linejoin="round"/>
<path d="M280.436 803.57L293.947 818.212" stroke="white" stroke-linecap="round" stroke-linejoin="round"/>
<path d="M208.603 725.971L239.903 759.646" stroke="white" stroke-linecap="round" stroke-linejoin="round"/>
<path d="M208.603 640.562L239.903 606.887" stroke="white" stroke-linecap="round" stroke-linejoin="round"/>
<path d="M97.3639 756.474V607.619" stroke="white" stroke-linecap="round" stroke-linejoin="round"/>
<path d="M133.393 102.49V329.432" stroke="white" stroke-linecap="round" stroke-linejoin="round"/>
<path d="M136.545 335.533L167.846 369.208" stroke="white" stroke-linecap="round" stroke-linejoin="round"/>
<path d="M100.516 953.157L239.903 802.106" stroke="white" stroke-linecap="round" stroke-linejoin="round"/>
<path d="M169.422 479.507C145.102 479.507 125.512 500.737 125.512 527.091C125.512 553.446 145.102 574.676 169.422 574.676C193.741 574.676 213.332 553.446 213.332 527.091C213.332 500.737 193.741 479.507 169.422 479.507ZM144.202 561.499C144.202 560.767 144.202 560.279 144.202 559.546C143.976 558.814 143.751 558.326 143.526 557.594C143.526 557.106 143.751 557.106 143.526 556.618C143.076 556.618 143.301 553.69 143.301 553.202C142.4 553.202 142.85 552.47 142.625 551.738C142.4 550.518 142.175 549.785 141.274 548.809C140.373 547.589 138.797 547.345 137.896 545.637C136.996 544.173 136.545 541.977 135.419 540.757C134.969 540.269 134.068 539.048 134.294 538.316L135.194 537.584C135.194 537.34 135.645 537.096 135.419 536.852C134.969 536.608 134.969 535.632 135.194 535.388C135.194 534.656 135.645 534.168 136.095 533.68L136.545 532.704C137.896 532.216 136.771 529.776 136.771 529.043C136.771 528.555 136.771 528.067 136.095 528.067C135.419 528.067 135.645 529.043 134.969 529.043C134.519 529.043 134.519 528.555 134.068 528.311C133.843 528.311 133.618 528.311 133.393 528.311C133.168 528.067 133.168 527.823 132.717 527.579C131.817 527.091 131.817 525.871 131.141 525.139C130.691 524.407 129.565 524.651 128.889 524.163C128.889 522.699 129.114 521.479 129.34 520.015C129.565 520.015 129.565 519.771 129.79 519.771C130.24 519.283 130.24 518.794 130.691 518.306C131.141 518.062 131.817 517.818 132.267 518.062C132.492 518.062 132.717 519.039 132.717 518.795C132.942 519.283 131.141 521.479 131.817 521.723C131.817 521.723 135.194 522.211 134.068 522.943C134.294 523.919 133.843 525.139 134.068 526.115C134.744 527.823 135.87 526.359 136.771 527.091C137.446 528.067 138.122 526.115 138.347 526.359C138.347 525.627 139.923 525.383 140.373 525.383C141.499 524.651 143.301 526.115 144.427 526.115C145.553 526.115 146.003 525.871 146.679 526.603C147.129 527.091 147.354 527.823 148.03 528.067C148.705 528.311 148.705 529.288 149.381 529.532C150.056 530.02 150.507 529.776 151.182 529.776C152.533 530.508 152.984 531.728 153.434 533.192C153.659 534.168 153.434 533.924 154.335 534.412C154.56 534.656 154.785 534.9 155.01 534.9C155.235 534.9 155.461 535.144 155.686 535.144C156.361 535.876 156.586 536.608 157.712 536.608C158.613 536.608 159.063 536.852 159.514 537.34C159.964 537.584 160.64 538.316 161.09 538.316C161.991 538.316 161.991 541.001 161.54 541.733C161.09 542.221 161.09 542.465 160.64 542.953C160.415 543.197 160.415 543.929 160.189 544.173C159.289 545.149 159.739 546.613 159.739 547.833C159.514 549.053 159.289 551.738 158.163 552.226C157.262 552.47 155.461 552.714 155.235 554.178C155.235 555.154 155.911 555.642 155.235 556.374C154.56 557.106 154.785 557.35 154.56 558.326C154.56 558.57 153.884 559.546 153.659 559.79C152.984 560.279 152.308 560.279 151.858 560.767C151.633 560.767 152.308 561.499 152.308 561.499C152.533 561.743 152.083 562.475 151.858 562.719C151.633 562.963 151.407 562.963 150.957 563.207C150.732 563.207 150.281 563.207 150.056 563.207H149.831C149.831 563.207 149.831 563.451 149.831 563.695C149.831 563.695 149.831 563.695 149.831 563.939C149.831 564.183 149.831 564.183 149.831 564.427V564.671L150.056 564.915L149.831 565.159C149.606 565.159 149.606 565.403 149.381 565.403C147.804 564.427 146.003 562.963 144.202 561.499ZM134.519 517.086C135.87 515.866 136.996 517.33 138.347 517.818C138.572 517.818 140.148 519.039 139.473 519.039C139.022 519.039 138.572 519.039 138.122 519.039C137.671 518.794 137.446 518.306 137.446 518.062C137.446 517.818 136.771 517.818 136.545 517.574C136.095 517.33 135.419 517.086 135.194 517.086C134.969 517.33 134.969 517.33 134.744 517.33C134.068 517.574 134.519 517.086 134.519 517.086ZM139.923 520.259C139.923 520.015 140.148 520.015 139.923 520.259C140.148 520.015 140.148 520.015 140.148 520.015C140.599 519.283 139.923 519.527 141.049 519.039C141.499 518.794 143.301 519.283 143.301 520.015C143.301 520.747 140.148 520.747 139.923 520.259ZM169.422 483.167C171.448 483.167 173.475 483.411 175.502 483.655C175.727 483.655 175.727 483.899 175.952 483.899C176.628 484.631 175.727 485.119 175.277 485.607C175.051 485.851 174.151 486.339 174.151 486.583C173.7 487.071 173.925 487.315 173.25 487.559C172.349 488.047 171.448 488.292 170.548 488.292C169.647 488.292 168.971 489.024 168.071 489.268C167.395 489.512 166.72 489.512 166.044 489.756C166.044 489.756 165.819 489.512 166.044 489.512C165.594 489.512 164.918 490.488 164.693 490.976C164.017 491.708 163.792 491.952 162.892 491.952C162.216 491.952 160.64 491.22 160.64 490.244C160.64 490 160.415 488.536 160.865 488.536C160.64 488.047 161.54 487.071 161.315 486.583C161.09 485.607 158.388 485.851 157.712 485.119C161.09 483.899 165.143 483.167 169.422 483.167ZM175.727 490.244C175.051 490.488 173.925 490.976 173.25 490.244C173.25 490.244 173.025 489.268 173.25 489.268C173.475 489.024 173.7 489.024 173.7 489.024H173.925C174.601 488.78 176.177 488.536 176.402 489.024C177.078 490 175.952 490 175.727 490.244ZM205.226 546.125C204.1 545.149 205.226 543.441 205.676 542.709C205.901 542.221 205.676 539.048 206.802 539.292C207.703 539.537 208.153 538.316 208.378 537.828C208.378 537.828 208.603 537.34 208.828 537.096C208.153 540.513 207.027 543.441 205.676 546.613C205.676 546.369 205.451 546.369 205.226 546.125ZM208.378 515.134C207.928 514.89 206.577 513.67 206.802 513.182C206.577 513.182 205.451 512.694 205.451 513.67C205.451 514.646 207.027 515.622 207.252 516.598C207.703 516.354 207.477 515.866 207.703 516.598C207.703 516.598 208.153 517.574 207.928 517.574C208.153 517.818 208.378 517.818 208.603 517.818C209.054 519.771 209.279 521.967 209.504 524.163C209.279 524.163 209.054 524.407 209.054 524.407C209.279 524.407 208.603 525.139 208.603 525.139C207.928 525.383 207.027 525.871 206.351 526.359C205.676 526.603 203.649 527.579 205.676 527.335C206.577 527.335 207.252 526.847 207.928 526.847C208.828 526.847 208.378 527.335 208.603 527.335C208.603 528.067 208.603 528.799 208.153 529.776C207.928 530.264 207.477 530.996 207.477 531.484C207.703 532.216 205.901 533.924 205.676 534.412C205.226 535.388 203.874 535.876 203.424 536.852C202.749 537.828 202.523 538.072 202.073 539.048C201.848 539.536 201.848 541.001 201.398 541.245C202.298 541.977 201.172 542.709 201.398 543.441C201.623 544.417 201.848 544.661 202.073 545.881C201.848 545.881 201.848 547.833 201.848 548.321C201.848 549.053 201.397 549.297 200.947 549.786C200.722 550.03 200.272 550.274 200.046 550.518H199.371C198.695 551.006 198.245 551.738 197.795 552.47C197.569 552.714 198.02 553.202 198.02 553.446C198.02 553.934 198.02 554.422 197.795 554.666C197.569 555.398 197.119 555.886 196.218 556.13C195.768 556.13 195.768 557.594 195.768 558.082C195.768 558.57 194.867 558.814 194.642 559.302C194.417 559.79 194.192 560.523 193.741 560.523C193.291 560.523 193.291 561.255 193.066 561.499C192.39 562.231 191.94 562.475 190.814 562.475C190.138 562.475 188.787 562.719 188.337 563.207L187.211 562.719C187.211 562.475 186.986 561.255 187.436 561.255C187.211 560.523 186.986 560.035 186.536 559.546C186.31 559.302 186.31 558.57 186.31 558.326C186.31 558.082 186.085 557.594 186.085 557.35C185.86 557.106 186.085 556.618 186.085 556.13C185.635 556.13 185.86 555.398 185.86 555.154C185.86 554.422 185.86 553.934 185.635 553.446C185.41 553.202 185.41 552.958 185.184 552.714C185.184 551.738 184.734 551.006 184.509 550.03C184.509 549.053 184.734 548.321 184.734 547.345C184.734 546.369 185.41 546.369 185.635 545.393C185.86 544.905 185.86 544.417 185.635 543.929C185.41 543.929 185.41 543.685 185.41 543.441C185.41 541.489 184.959 540.025 183.833 538.56C183.158 537.584 182.707 536.852 183.158 535.632C183.383 535.144 183.608 533.924 183.608 533.436C183.608 532.704 182.707 532.216 182.257 532.216C181.356 531.972 181.356 531.972 180.906 531.24C180.23 530.02 178.654 531.728 177.979 531.728C177.753 532.216 176.402 531.972 175.952 531.972C175.276 531.972 174.826 531.972 174.151 531.972C173.7 531.972 173.7 532.46 173.25 532.216C172.349 531.972 171.223 530.752 170.548 530.264C169.647 529.776 169.422 528.067 168.746 527.091C168.296 526.359 167.62 525.139 167.62 524.163C167.62 522.943 168.296 521.723 168.071 520.259C167.846 518.55 168.071 517.574 168.746 515.866C168.971 515.378 169.197 514.646 169.872 514.402C169.872 514.402 170.097 513.67 170.323 513.67C170.773 512.938 172.124 512.938 172.124 511.718C172.124 510.986 173.025 509.766 173.475 509.278C173.925 509.034 174.601 507.569 174.151 507.325C173.475 506.593 172.799 507.325 172.574 505.861C172.574 505.373 172.574 502.445 173.25 502.445C174.151 502.445 175.051 502.201 176.177 502.201C178.429 502.201 175.276 499.029 175.502 499.029C175.502 499.029 176.402 498.785 176.628 498.541C177.078 498.052 175.952 498.052 175.952 497.808C175.051 497.808 175.952 496.588 174.826 497.076C174.151 497.32 173.925 497.32 173.25 497.32C171.674 497.076 174.151 494.392 174.376 495.368C174.826 495.124 174.826 494.88 174.826 494.636C174.826 494.392 174.826 494.148 174.826 494.392C175.276 492.44 177.303 496.344 177.753 496.344C178.204 496.344 177.979 494.88 178.204 494.88C178.204 494.88 178.879 494.392 179.105 494.392C179.78 494.636 179.555 492.196 179.78 491.952C180.456 491.464 181.582 491.22 182.257 490.488C183.158 489.512 184.059 488.78 185.184 488.536C185.86 488.292 187.211 488.047 188.112 488.047C198.245 494.148 205.451 503.665 208.378 515.134ZM141.725 494.88C141.95 495.124 142.175 495.124 142.4 495.368C142.85 495.612 142.625 496.588 143.076 497.076C144.427 498.785 145.102 495.856 146.003 495.368C146.003 495.368 147.579 494.392 147.129 494.392C146.679 493.904 147.129 492.928 147.579 492.44C147.804 492.196 148.255 491.22 148.705 491.22C149.156 490.488 149.381 489.756 150.056 489.756C150.732 489.512 151.182 489.512 151.858 489.024C152.308 488.536 151.407 488.047 150.957 488.047C151.858 487.559 152.984 487.071 153.884 486.583C155.01 487.071 157.037 487.803 156.586 489.024C156.361 490.244 155.01 489.268 154.335 490C153.659 490.488 153.884 491.22 152.984 491.22C152.083 491.22 151.182 491.22 151.407 492.684C151.858 493.904 152.758 492.44 153.434 492.44C154.335 492.44 154.56 494.392 154.785 495.124C154.785 495.368 155.686 495.368 155.235 495.612C155.461 495.856 155.686 495.612 155.911 496.1C155.911 496.832 155.686 497.076 155.686 497.564C155.686 498.296 156.586 499.029 155.461 499.517C154.56 499.761 153.659 499.273 154.109 498.296C154.56 497.076 153.434 497.808 152.758 497.808C151.633 497.564 150.732 497.808 149.831 498.541C150.281 498.541 150.507 498.785 150.281 499.273C150.056 499.761 150.732 500.981 150.281 501.225C149.831 501.469 149.156 501.225 148.705 501.469C148.255 501.713 147.804 501.713 147.354 501.957C146.228 502.201 146.228 502.689 145.327 503.421C144.652 504.153 143.526 504.397 142.85 505.129C142.625 505.373 141.95 505.617 141.725 505.861C141.499 506.105 141.725 506.837 141.499 507.325C141.274 507.813 138.572 510.498 138.122 510.254C138.122 510.498 137.671 511.474 137.446 511.474C136.996 512.206 137.221 512.694 137.446 513.426C137.671 514.646 136.771 516.598 136.095 514.89C135.645 514.158 136.095 513.914 136.095 512.938C136.095 512.206 135.419 512.45 134.969 512.45C134.294 512.206 133.393 512.206 132.717 512.206C132.717 512.206 132.042 512.938 131.817 512.938C131.591 512.938 131.141 512.938 130.916 512.938C133.393 505.617 136.996 499.761 141.725 494.88Z" fill="white"/>
<path d="M181.131 496.832C181.356 496.832 182.032 497.076 182.032 496.344C182.032 495.856 181.807 495.124 181.356 495.124C180.456 495.124 180.681 496.1 180.23 496.588C180.456 496.588 179.555 496.832 179.555 497.076C179.105 497.076 178.879 497.321 178.879 498.053C178.654 498.541 180.681 497.076 181.131 496.832Z" fill="white"/>
<path d="M186.31 496.345C186.761 496.345 187.436 495.856 187.661 495.124C188.112 494.392 187.436 494.392 186.986 493.66C186.986 493.416 186.31 492.196 186.085 492.928C185.86 493.416 186.31 493.66 186.085 494.148C186.085 494.88 185.86 495.368 185.41 495.612C185.635 496.101 186.085 496.345 186.31 496.345Z" fill="white"/>
<path d="M190.814 508.058C190.138 507.814 189.688 506.837 189.238 506.105C188.787 505.617 188.562 504.641 188.112 504.153C187.436 503.421 186.31 502.933 185.185 502.201C185.185 502.689 185.185 502.933 185.41 503.421C185.635 503.909 186.536 503.909 186.761 504.397C186.986 504.885 187.211 504.397 187.211 505.373C187.211 505.617 187.211 506.593 186.761 506.593C186.761 506.593 186.31 505.373 185.86 505.129C185.41 504.885 184.959 504.641 184.509 504.397C184.059 503.909 183.608 502.933 182.933 502.933C182.257 502.933 181.582 503.421 180.906 503.421C180.005 503.421 179.78 504.397 179.33 504.641C178.654 505.373 178.204 505.617 177.979 506.593C177.979 507.082 176.628 508.058 177.528 508.302C178.654 507.57 179.78 507.326 181.131 507.326C182.032 507.326 182.708 507.082 183.608 507.326C183.833 507.57 184.734 508.546 184.284 509.034C184.734 509.278 184.059 509.766 184.959 510.254C185.635 510.498 186.31 510.254 186.986 510.986C187.211 511.23 188.562 512.206 189.238 512.206C189.463 512.206 189.688 512.206 189.688 511.962C190.138 509.522 193.741 512.45 195.092 512.206C195.768 511.962 195.768 511.962 196.444 512.206C197.119 512.206 197.344 512.45 197.795 511.718C198.245 510.742 198.245 509.522 197.795 508.546C197.569 508.79 196.669 509.278 196.444 509.278C196.218 508.79 195.768 508.546 195.092 509.034C194.417 509.522 192.615 508.058 192.615 507.326C192.615 505.861 191.49 505.617 190.589 506.593C190.589 506.838 191.264 507.57 191.264 507.57C190.589 507.326 191.039 508.058 190.814 508.058ZM186.085 507.814C185.86 507.814 184.734 507.326 184.734 507.082C184.734 506.838 185.41 507.082 185.41 507.082C186.085 506.838 186.986 507.326 186.085 507.814Z" fill="white"/>
<path d="M194.192 505.129C194.867 505.129 195.543 504.641 196.218 504.641C197.344 504.641 198.02 505.373 199.146 505.373C201.623 504.885 197.569 503.665 197.119 502.933C197.119 502.689 197.344 501.957 197.119 501.713C196.669 501.957 196.218 502.201 195.768 502.445C195.993 502.689 196.669 502.445 196.669 502.689L195.318 503.177C195.318 502.933 194.867 501.957 194.642 501.957C193.066 501.713 192.165 505.129 194.192 505.129Z" fill="white"/>
<path d="M198.245 514.646H197.569C197.344 515.622 198.02 515.866 198.245 516.354C198.47 517.086 198.92 518.063 199.371 518.551C200.046 519.283 200.046 520.259 200.272 521.235C200.272 521.479 200.947 521.479 201.172 521.723C201.623 522.211 201.848 522.943 202.073 523.431C202.073 523.675 202.749 524.651 202.974 524.651C203.199 524.163 202.749 523.431 202.974 522.699C202.974 522.699 202.523 521.967 202.298 521.723C201.623 520.747 200.722 519.771 200.497 518.795C200.272 517.574 199.146 516.354 198.695 515.378C198.695 515.378 198.47 515.134 198.245 514.646Z" fill="white"/>
<path d="M-2.39117 1314.07L7.29161 1307.97L-2.39117 1301.87V1314.07Z" fill="white"/>
<path d="M-186.364 19.5218H105.02" stroke="white" stroke-linecap="round" stroke-linejoin="round"/>
<path d="M105.696 25.6225L115.378 19.5219L105.696 13.4213V25.6225Z" fill="white"/>
<path d="M133.393 24.4023C135.88 24.4023 137.896 22.2172 137.896 19.5218C137.896 16.8264 135.88 14.6413 133.393 14.6413C130.906 14.6413 128.889 16.8264 128.889 19.5218C128.889 22.2172 130.906 24.4023 133.393 24.4023Z" fill="white"/>
<path d="M169.422 63.446C171.909 63.446 173.925 61.2609 173.925 58.5655C173.925 55.8701 171.909 53.685 169.422 53.685C166.935 53.685 164.918 55.8701 164.918 58.5655C164.918 61.2609 166.935 63.446 169.422 63.446Z" fill="white"/>
<path d="M169.422 141.534C171.909 141.534 173.925 139.349 173.925 136.653C173.925 133.958 171.909 131.773 169.422 131.773C166.935 131.773 164.918 133.958 164.918 136.653C164.918 139.349 166.935 141.534 169.422 141.534Z" fill="white"/>
<path d="M205.451 102.49C207.938 102.49 209.954 100.305 209.954 97.6095C209.954 94.9141 207.938 92.729 205.451 92.729C202.963 92.729 200.947 94.9141 200.947 97.6095C200.947 100.305 202.963 102.49 205.451 102.49Z" fill="white"/>
<path d="M61.335 258.665C63.8223 258.665 65.8387 256.48 65.8387 253.784C65.8387 251.089 63.8223 248.904 61.335 248.904C58.8478 248.904 56.8314 251.089 56.8314 253.784C56.8314 256.48 58.8478 258.665 61.335 258.665Z" fill="white"/>
<path d="M61.335 414.84C63.8223 414.84 65.8387 412.655 65.8387 409.96C65.8387 407.265 63.8223 405.079 61.335 405.079C58.8478 405.079 56.8314 407.265 56.8314 409.96C56.8314 412.655 58.8478 414.84 61.335 414.84Z" fill="white"/>
<path d="M205.451 258.665C207.938 258.665 209.954 256.48 209.954 253.784C209.954 251.089 207.938 248.904 205.451 248.904C202.963 248.904 200.947 251.089 200.947 253.784C200.947 256.48 202.963 258.665 205.451 258.665Z" fill="white"/>
<path d="M169.422 375.797C171.909 375.797 173.925 373.612 173.925 370.916C173.925 368.221 171.909 366.036 169.422 366.036C166.935 366.036 164.918 368.221 164.918 370.916C164.918 373.612 166.935 375.797 169.422 375.797Z" fill="white"/>
<path d="M97.3639 453.884C99.8512 453.884 101.868 451.699 101.868 449.004C101.868 446.308 99.8512 444.123 97.3639 444.123C94.8766 444.123 92.8603 446.308 92.8603 449.004C92.8603 451.699 94.8766 453.884 97.3639 453.884Z" fill="white"/>
<path d="M169.422 453.884C171.909 453.884 173.925 451.699 173.925 449.004C173.925 446.308 171.909 444.123 169.422 444.123C166.935 444.123 164.918 446.308 164.918 449.004C164.918 451.699 166.935 453.884 169.422 453.884Z" fill="white"/>
<path d="M97.3639 531.972C99.8512 531.972 101.868 529.787 101.868 527.091C101.868 524.396 99.8512 522.211 97.3639 522.211C94.8766 522.211 92.8603 524.396 92.8603 527.091C92.8603 529.787 94.8766 531.972 97.3639 531.972Z" fill="white"/>
<path d="M169.422 610.06C171.909 610.06 173.925 607.874 173.925 605.179C173.925 602.484 171.909 600.299 169.422 600.299C166.935 600.299 164.918 602.484 164.918 605.179C164.918 607.874 166.935 610.06 169.422 610.06Z" fill="white"/>
<path d="M241.48 531.972C243.967 531.972 245.983 529.787 245.983 527.091C245.983 524.396 243.967 522.211 241.48 522.211C238.992 522.211 236.976 524.396 236.976 527.091C236.976 529.787 238.992 531.972 241.48 531.972Z" fill="white"/>
<path d="M277.509 414.84C279.996 414.84 282.012 412.655 282.012 409.96C282.012 407.265 279.996 405.079 277.509 405.079C275.021 405.079 273.005 407.265 273.005 409.96C273.005 412.655 275.021 414.84 277.509 414.84Z" fill="white"/>
<path d="M277.509 571.016C279.996 571.016 282.012 568.831 282.012 566.135C282.012 563.44 279.996 561.255 277.509 561.255C275.021 561.255 273.005 563.44 273.005 566.135C273.005 568.831 275.021 571.016 277.509 571.016Z" fill="white"/>
<path d="M241.48 610.06C243.967 610.06 245.983 607.874 245.983 605.179C245.983 602.484 243.967 600.299 241.48 600.299C238.992 600.299 236.976 602.484 236.976 605.179C236.976 607.874 238.992 610.06 241.48 610.06Z" fill="white"/>
<path d="M205.451 649.103C207.938 649.103 209.954 646.918 209.954 644.223C209.954 641.527 207.938 639.342 205.451 639.342C202.963 639.342 200.947 641.527 200.947 644.223C200.947 646.918 202.963 649.103 205.451 649.103Z" fill="white"/>
<path d="M169.422 688.147C171.909 688.147 173.925 685.962 173.925 683.267C173.925 680.571 171.909 678.386 169.422 678.386C166.935 678.386 164.918 680.571 164.918 683.267C164.918 685.962 166.935 688.147 169.422 688.147Z" fill="white"/>
<path d="M205.451 727.191C207.938 727.191 209.954 725.006 209.954 722.31C209.954 719.615 207.938 717.43 205.451 717.43C202.963 717.43 200.947 719.615 200.947 722.31C200.947 725.006 202.963 727.191 205.451 727.191Z" fill="white"/>
<path d="M241.48 688.147C243.967 688.147 245.983 685.962 245.983 683.267C245.983 680.571 243.967 678.386 241.48 678.386C238.992 678.386 236.976 680.571 236.976 683.267C236.976 685.962 238.992 688.147 241.48 688.147Z" fill="white"/>
<path d="M313.538 688.147C316.025 688.147 318.041 685.962 318.041 683.267C318.041 680.571 316.025 678.386 313.538 678.386C311.05 678.386 309.034 680.571 309.034 683.267C309.034 685.962 311.05 688.147 313.538 688.147Z" fill="white"/>
<path d="M313.538 766.235C316.025 766.235 318.041 764.05 318.041 761.354C318.041 758.659 316.025 756.474 313.538 756.474C311.05 756.474 309.034 758.659 309.034 761.354C309.034 764.05 311.05 766.235 313.538 766.235Z" fill="white"/>
<path d="M385.595 844.322C388.083 844.322 390.099 842.137 390.099 839.442C390.099 836.746 388.083 834.561 385.595 834.561C383.108 834.561 381.092 836.746 381.092 839.442C381.092 842.137 383.108 844.322 385.595 844.322Z" fill="white"/>
<path d="M385.595 922.41C388.083 922.41 390.099 920.225 390.099 917.53C390.099 914.834 388.083 912.649 385.595 912.649C383.108 912.649 381.092 914.834 381.092 917.53C381.092 920.225 383.108 922.41 385.595 922.41Z" fill="white"/>
<path d="M313.538 844.322C316.025 844.322 318.041 842.137 318.041 839.442C318.041 836.746 316.025 834.561 313.538 834.561C311.05 834.561 309.034 836.746 309.034 839.442C309.034 842.137 311.05 844.322 313.538 844.322Z" fill="white"/>
<path d="M313.538 922.41C316.025 922.41 318.041 920.225 318.041 917.53C318.041 914.834 316.025 912.649 313.538 912.649C311.05 912.649 309.034 914.834 309.034 917.53C309.034 920.225 311.05 922.41 313.538 922.41Z" fill="white"/>
<path d="M169.422 1039.54C171.909 1039.54 173.925 1037.36 173.925 1034.66C173.925 1031.97 171.909 1029.78 169.422 1029.78C166.935 1029.78 164.918 1031.97 164.918 1034.66C164.918 1037.36 166.935 1039.54 169.422 1039.54Z" fill="white"/>
<path d="M169.422 1000.5C171.909 1000.5 173.925 998.312 173.925 995.617C173.925 992.922 171.909 990.736 169.422 990.736C166.935 990.736 164.918 992.922 164.918 995.617C164.918 998.312 166.935 1000.5 169.422 1000.5Z" fill="white"/>
<path d="M277.509 883.366C279.996 883.366 282.012 881.181 282.012 878.486C282.012 875.79 279.996 873.605 277.509 873.605C275.021 873.605 273.005 875.79 273.005 878.486C273.005 881.181 275.021 883.366 277.509 883.366Z" fill="white"/>
<path d="M259.494 863.844C261.981 863.844 263.998 861.659 263.998 858.964C263.998 856.268 261.981 854.083 259.494 854.083C257.007 854.083 254.991 856.268 254.991 858.964C254.991 861.659 257.007 863.844 259.494 863.844Z" fill="white"/>
<path d="M169.422 961.454C171.909 961.454 173.925 959.269 173.925 956.574C173.925 953.878 171.909 951.693 169.422 951.693C166.935 951.693 164.918 953.878 164.918 956.574C164.918 959.269 166.935 961.454 169.422 961.454Z" fill="white"/>
<path d="M169.422 922.41C171.909 922.41 173.925 920.225 173.925 917.53C173.925 914.834 171.909 912.649 169.422 912.649C166.935 912.649 164.918 914.834 164.918 917.53C164.918 920.225 166.935 922.41 169.422 922.41Z" fill="white"/>
<path d="M97.3639 1000.5C99.8512 1000.5 101.868 998.312 101.868 995.617C101.868 992.922 99.8512 990.736 97.3639 990.736C94.8766 990.736 92.8603 992.922 92.8603 995.617C92.8603 998.312 94.8766 1000.5 97.3639 1000.5Z" fill="white"/>
<path d="M25.3061 1078.59C27.7934 1078.59 29.8097 1076.4 29.8097 1073.7C29.8097 1071.01 27.7934 1068.82 25.3061 1068.82C22.8188 1068.82 20.8025 1071.01 20.8025 1073.7C20.8025 1076.4 22.8188 1078.59 25.3061 1078.59Z" fill="white"/>
<path d="M25.3061 1312.85C27.7934 1312.85 29.8097 1310.66 29.8097 1307.97C29.8097 1305.27 27.7934 1303.09 25.3061 1303.09C22.8188 1303.09 20.8025 1305.27 20.8025 1307.97C20.8025 1310.66 22.8188 1312.85 25.3061 1312.85Z" fill="white"/>
<path d="M25.3061 922.41C27.7934 922.41 29.8097 920.225 29.8097 917.53C29.8097 914.834 27.7934 912.649 25.3061 912.649C22.8188 912.649 20.8025 914.834 20.8025 917.53C20.8025 920.225 22.8188 922.41 25.3061 922.41Z" fill="white"/>
<path d="M241.48 375.797C243.967 375.797 245.983 373.612 245.983 370.916C245.983 368.221 243.967 366.036 241.48 366.036C238.992 366.036 236.976 368.221 236.976 370.916C236.976 373.612 238.992 375.797 241.48 375.797Z" fill="white"/>
<path d="M241.48 297.709C243.967 297.709 245.983 295.524 245.983 292.828C245.983 290.133 243.967 287.948 241.48 287.948C238.992 287.948 236.976 290.133 236.976 292.828C236.976 295.524 238.992 297.709 241.48 297.709Z" fill="white"/>
<path d="M277.509 336.753C279.996 336.753 282.012 334.568 282.012 331.872C282.012 329.177 279.996 326.992 277.509 326.992C275.021 326.992 273.005 329.177 273.005 331.872C273.005 334.568 275.021 336.753 277.509 336.753Z" fill="white"/>
<path d="M25.3061 844.322C27.7934 844.322 29.8097 842.137 29.8097 839.442C29.8097 836.746 27.7934 834.561 25.3061 834.561C22.8188 834.561 20.8025 836.746 20.8025 839.442C20.8025 842.137 22.8188 844.322 25.3061 844.322Z" fill="white"/>
<path d="M25.3061 766.235C27.7934 766.235 29.8097 764.05 29.8097 761.354C29.8097 758.659 27.7934 756.474 25.3061 756.474C22.8188 756.474 20.8025 758.659 20.8025 761.354C20.8025 764.05 22.8188 766.235 25.3061 766.235Z" fill="white"/>
<path d="M25.3061 688.147C27.7934 688.147 29.8097 685.962 29.8097 683.267C29.8097 680.571 27.7934 678.386 25.3061 678.386C22.8188 678.386 20.8025 680.571 20.8025 683.267C20.8025 685.962 22.8188 688.147 25.3061 688.147Z" fill="white"/>
<path d="M97.3639 766.235C99.8512 766.235 101.868 764.05 101.868 761.354C101.868 758.659 99.8512 756.474 97.3639 756.474C94.8766 756.474 92.8603 758.659 92.8603 761.354C92.8603 764.05 94.8766 766.235 97.3639 766.235Z" fill="white"/>
<path d="M97.3639 610.06C99.8512 610.06 101.868 607.874 101.868 605.179C101.868 602.484 99.8512 600.299 97.3639 600.299C94.8766 600.299 92.8603 602.484 92.8603 605.179C92.8603 607.874 94.8766 610.06 97.3639 610.06Z" fill="white"/>
<path d="M97.3639 844.322C99.8512 844.322 101.868 842.137 101.868 839.442C101.868 836.746 99.8512 834.561 97.3639 834.561C94.8766 834.561 92.8603 836.746 92.8603 839.442C92.8603 842.137 94.8766 844.322 97.3639 844.322Z" fill="white"/>
<path d="M169.422 844.322C171.909 844.322 173.925 842.137 173.925 839.442C173.925 836.746 171.909 834.561 169.422 834.561C166.935 834.561 164.918 836.746 164.918 839.442C164.918 842.137 166.935 844.322 169.422 844.322Z" fill="white"/>
<path d="M169.422 766.235C171.909 766.235 173.925 764.05 173.925 761.354C173.925 758.659 171.909 756.474 169.422 756.474C166.935 756.474 164.918 758.659 164.918 761.354C164.918 764.05 166.935 766.235 169.422 766.235Z" fill="white"/>
<path d="M227.068 91.0208H219.862V89.3127H229.095V90.5328C225.717 95.1692 225.042 98.8296 224.816 104.93H223.015C223.24 99.0736 224.141 95.4133 227.068 91.0208Z" fill="white"/>
<path d="M232.247 102.246C232.923 102.978 233.598 103.466 234.499 103.466C236.526 103.466 238.327 101.758 238.327 96.8774C237.427 98.0975 236.076 98.8296 234.95 98.8296C232.473 98.8296 230.896 97.1214 230.896 93.9491C230.896 91.0208 232.923 89.0686 235.175 89.0686C238.102 89.0686 240.129 91.5089 240.129 96.6334C240.129 102.978 237.427 105.174 234.724 105.174C233.148 105.174 232.022 104.442 231.347 103.466L232.247 102.246ZM238.327 95.4133C238.102 92.485 236.976 90.7768 235.175 90.7768C233.824 90.7768 232.698 92.241 232.698 94.1931C232.698 96.1453 233.598 97.3655 235.4 97.3655C236.301 97.3655 237.427 96.8774 238.327 95.4133Z" fill="white"/>
<path d="M244.182 102.246C244.858 102.246 245.533 102.978 245.533 103.71C245.533 104.686 244.858 105.174 244.182 105.174C243.506 105.174 242.831 104.442 242.831 103.71C242.831 102.734 243.281 102.246 244.182 102.246Z" fill="white"/>
<path d="M248.46 101.758C249.361 102.734 250.487 103.466 252.063 103.466C253.865 103.466 255.216 102.002 255.216 99.8057C255.216 97.6095 254.09 96.3894 252.063 96.3894C251.163 96.3894 250.487 96.6334 249.586 97.3655L248.686 96.6334L249.136 89.0686H256.342V90.7768H250.712L250.262 95.4133C250.937 94.9252 251.613 94.6812 252.514 94.6812C254.991 94.6812 257.017 96.1453 257.017 99.5617C257.017 102.978 254.765 104.93 252.288 104.93C250.037 104.93 248.686 103.954 247.56 102.734L248.46 101.758Z" fill="white"/>
<path d="M408.114 833.829C407.438 833.097 406.762 832.609 405.862 832.609C403.835 832.609 402.259 834.318 402.034 839.198C402.934 837.978 404.285 837.246 405.411 837.246C407.888 837.246 409.465 838.954 409.465 842.126C409.465 845.055 407.438 847.007 405.186 847.007C402.484 847.007 400.232 844.567 400.232 839.442C400.232 833.097 402.934 830.901 405.637 830.901C407.213 830.901 408.339 831.633 409.014 832.609L408.114 833.829ZM407.663 842.126C407.663 840.174 406.762 838.954 404.961 838.954C404.06 838.954 402.934 839.442 402.034 840.906C402.259 843.834 403.385 845.543 405.186 845.543C406.537 845.543 407.663 844.078 407.663 842.126Z" fill="white"/>
<path d="M419.147 833.829C418.472 833.097 417.796 832.609 416.896 832.609C414.869 832.609 413.293 834.317 413.068 839.198C413.968 837.978 415.319 837.246 416.445 837.246C418.922 837.246 420.499 838.954 420.499 842.126C420.499 845.055 418.472 847.007 416.22 847.007C413.518 847.007 411.266 844.566 411.266 839.442C411.266 833.097 413.968 830.901 416.67 830.901C418.247 830.901 419.373 831.633 420.048 832.609L419.147 833.829ZM418.697 842.126C418.697 840.174 417.796 838.954 415.995 838.954C415.094 838.954 413.968 839.442 413.068 840.906C413.293 843.834 414.419 845.543 416.22 845.543C417.796 845.543 418.697 844.078 418.697 842.126Z" fill="white"/>
<path d="M424.327 844.078C425.002 844.078 425.678 844.811 425.678 845.543C425.678 846.519 425.002 847.007 424.327 847.007C423.651 847.007 422.975 846.275 422.975 845.543C422.975 844.566 423.426 844.078 424.327 844.078Z" fill="white"/>
<path d="M437.612 842.37H435.586V846.763H433.784V842.37H427.254V841.15L433.334 831.145H435.36V840.906H437.387V842.37H437.612ZM434.009 840.906V836.514C434.009 835.781 434.009 834.317 434.009 833.585C433.559 834.317 433.334 835.049 432.883 835.782L429.506 841.15H434.009V840.906Z" fill="white"/>
<path d="M40.3932 765.503C41.294 766.479 42.4199 767.455 43.9961 767.455C45.7976 767.455 46.9235 766.235 46.9235 764.527C46.9235 762.574 45.7976 761.354 42.4199 761.354V759.89C45.5724 759.89 46.4731 758.67 46.4731 756.962C46.4731 755.498 45.5724 754.522 43.9961 754.522C42.8702 754.522 41.7443 755.254 40.8436 755.986L39.9429 754.766C41.0688 753.546 42.4199 752.813 43.9961 752.813C46.4731 752.813 48.2746 754.278 48.2746 756.718C48.2746 758.67 47.1487 759.89 45.5724 760.378C47.3739 760.866 48.7249 762.086 48.7249 764.283C48.7249 766.967 46.6983 768.675 43.9961 768.675C41.7443 768.675 40.1681 767.699 39.2673 766.479L40.3932 765.503Z" fill="white"/>
<path d="M58.8581 755.742C58.1825 755.01 57.507 754.522 56.6063 754.522C54.5796 754.522 53.0034 756.23 52.7782 761.11C53.6789 759.89 55.03 759.158 56.1559 759.158C58.6329 759.158 60.2092 760.866 60.2092 764.038C60.2092 766.967 58.1826 768.919 55.9308 768.919C53.2286 768.919 50.9767 766.479 50.9767 761.354C50.9767 755.01 53.6789 752.813 56.3811 752.813C57.9574 752.813 59.0833 753.545 59.7588 754.522L58.8581 755.742ZM58.4077 764.038C58.4077 762.086 57.507 760.866 55.7056 760.866C54.8048 760.866 53.6789 761.354 52.7782 762.818C53.0034 765.747 54.1293 767.455 55.9308 767.455C57.507 767.455 58.4077 765.991 58.4077 764.038Z" fill="white"/>
<path d="M64.0373 765.99C64.7128 765.99 65.3884 766.723 65.3884 767.455C65.3884 768.431 64.7128 768.919 64.0373 768.919C63.3617 768.919 62.6862 768.187 62.6862 767.455C62.6862 766.479 63.1366 765.99 64.0373 765.99Z" fill="white"/>
<path d="M70.3423 760.622C69.2164 759.646 68.3157 758.67 68.3157 756.962C68.3157 754.521 70.1171 753.057 72.3689 753.057C74.8459 753.057 76.4222 754.765 76.4222 757.205C76.4222 758.914 75.2963 760.134 74.3955 760.866C75.7466 761.598 76.8725 762.818 76.8725 764.77C76.8725 766.966 75.0711 768.919 72.1437 768.919C69.4416 768.919 67.4149 767.21 67.4149 764.77C67.6401 762.574 68.9912 761.354 70.3423 760.622ZM72.3689 767.455C73.9452 767.455 75.0711 766.234 75.0711 764.77C75.0711 762.818 73.2696 762.086 71.243 761.11C70.1171 761.842 69.2164 763.062 69.2164 764.526C69.4416 766.234 70.7926 767.455 72.3689 767.455ZM74.8459 756.962C74.8459 755.497 73.9452 754.277 72.3689 754.277C71.0178 754.277 70.1171 755.253 70.1171 756.717C70.1171 758.67 71.6933 759.402 73.4948 760.134C74.3955 759.158 74.8459 758.182 74.8459 756.962Z" fill="white"/>
</g>
</svg>
