<svg width="171" height="173" viewBox="0 0 171 173" fill="none" xmlns="http://www.w3.org/2000/svg">
<g filter="url(#filter0_d_1_1435)">
<path d="M84.2181 153.325L77.4897 153.004L77.5439 151.869L85.6467 152.255L85.0597 164.561L77.1487 164.184L77.2028 163.049L83.7394 163.361L83.9421 159.11L77.9809 158.826L78.035 157.691L83.9963 157.975L84.2181 153.325Z" fill="white"/>
<path d="M73.7065 151.293L68.2086 156.459L70.4989 163.191L68.8992 162.795L67.1203 157.327L67.0892 157.32L62.9661 161.327L61.444 160.95L66.6012 156.095L64.1546 148.929L65.8009 149.337L67.6895 155.227L67.7206 155.234L72.1689 150.912L73.7065 151.293Z" fill="white"/>
<path d="M50.304 156.38C48.0575 155.33 47.195 153.284 48.1372 151.269C49.0861 149.24 51.2093 148.59 53.4703 149.648L56.253 150.949L58.3203 146.529L59.5667 147.112L54.3476 158.272L50.304 156.38ZM52.9088 150.622C51.474 149.951 50.0768 150.445 49.4126 151.866C48.7551 153.272 49.2779 154.646 50.7127 155.318L53.5824 156.66L55.7785 151.964L52.9088 150.622Z" fill="white"/>
<path d="M45.954 140.96L41.2666 137.613L41.9454 136.662L47.7526 140.809L40.5926 150.835L39.4728 150.035L45.954 140.96Z" fill="white"/>
<path d="M35.5857 130.237C37.7693 132.554 37.378 135.825 34.6183 138.425C31.8587 141.026 28.5704 141.223 26.3867 138.906C24.214 136.6 24.5944 133.318 27.354 130.717C30.1137 128.116 33.413 127.931 35.5857 130.237ZM34.724 131.049C33.1219 129.349 30.578 129.635 28.3307 131.753C26.0833 133.871 25.6463 136.394 27.2484 138.094C28.8505 139.794 31.4054 139.519 33.6527 137.401C35.9 135.283 36.3261 132.749 34.724 131.049Z" fill="white"/>
<path d="M24.0903 114.314L24.8917 115.643L21.8542 120.8L21.9451 120.95L23.6305 123.746L28.1384 121.028L28.8489 122.206L18.2983 128.567L15.9107 124.607C14.6054 122.443 14.8889 120.31 16.6428 119.252C18.1089 118.368 19.7119 118.579 20.9656 119.729L24.0903 114.314ZM18.5607 126.802L22.6987 124.307L20.9638 121.43C20.1294 120.046 18.7263 119.64 17.452 120.409C16.2462 121.136 15.9996 122.555 16.834 123.939L18.5607 126.802Z" fill="white"/>
<path d="M20.6116 108.764L18.3551 102.417L19.4255 102.037L22.1429 109.68L10.5348 113.807L7.88164 106.345L8.952 105.964L11.1442 112.13L15.1543 110.705L13.1551 105.081L14.2254 104.701L16.2246 110.324L20.6116 108.764Z" fill="white"/>
<path d="M4.85133 75.5834L4.86774 74.1755L17.1478 77.6788L17.1278 79.3907L6.39229 82.0338L6.39192 82.0658L17.0633 84.9263L17.0434 86.6382L4.68488 89.8705L4.70221 88.3826L15.6301 85.7097L15.6305 85.6777L4.76801 82.7349L4.78572 81.215L15.7134 78.5582L15.7138 78.5262L4.85133 75.5834Z" fill="white"/>
<path d="M18.4061 70.2056L6.34798 67.6791L6.63017 66.3323L18.6883 68.8589L18.4061 70.2056Z" fill="white"/>
<path d="M11.6229 50.6673L12.6866 51.0662L11.3494 54.6317L21.8212 58.559L21.3436 59.8324L10.8718 55.9051L9.53462 59.4706L8.47096 59.0717L11.6229 50.6673Z" fill="white"/>
<path d="M18.9775 37.6955L19.7082 36.5296L30.1477 43.0716L29.4171 44.2375L24.5905 41.2129L21.243 46.5547L26.0696 49.5793L25.3389 50.7453L14.8994 44.2033L15.63 43.0373L20.2804 45.9515L23.6279 40.6097L18.9775 37.6955Z" fill="white"/>
<path d="M43.3232 29.8886C41.2264 31.5705 38.6972 31.2814 37.0053 29.1721L32.0197 22.9566L33.0931 22.0957L38.1387 28.3861C39.3601 29.9087 41.1345 30.1263 42.6073 28.945C44.08 27.7637 44.2776 25.9643 43.0562 24.4416L38.0105 18.1512L39.0215 17.3403L44.0071 23.5558C45.699 25.6651 45.4324 28.1967 43.3232 29.8886Z" fill="white"/>
<path d="M54.865 22.5424C52.4889 23.7646 50.0488 23.1484 48.7649 21.0019L49.9085 20.2518C50.8643 21.8653 52.6445 22.3531 54.3377 21.4822C56.1162 20.5675 56.8654 19.1206 56.2068 17.84C55.3871 16.2465 53.6895 16.7238 51.95 17.2946C50.0035 17.9179 47.8635 18.5148 46.7658 16.3806C45.8145 14.5309 46.7502 12.5023 49.0837 11.3021C51.3033 10.1604 53.5929 10.7641 54.8113 12.8182L53.6678 13.5683C52.7774 12.0471 51.1476 11.5719 49.5825 12.3769C48.0032 13.1892 47.3597 14.4918 47.9671 15.6727C48.6696 17.0387 50.2104 16.6061 51.8714 16.0576C53.889 15.3977 56.1859 14.7561 57.4007 17.118C58.4033 19.0673 57.3976 21.2398 54.865 22.5424Z" fill="white"/>
<path d="M72.4145 13.0025C71.5187 13.1737 70.8007 12.7408 70.6385 11.8921C70.4763 11.0435 70.9812 10.3606 71.8769 10.1894C72.7885 10.0153 73.4938 10.4669 73.6559 11.3156C73.8181 12.1642 73.326 12.8284 72.4145 13.0025Z" fill="white"/>
<path d="M90.5194 14.0815L97.2235 14.7369L97.113 15.8675L89.0394 15.0783L90.2381 2.81673L98.1205 3.58728L98.01 4.71789L91.497 4.08121L91.083 8.31702L97.0227 8.89766L96.9121 10.0283L90.9724 9.44763L90.5194 14.0815Z" fill="white"/>
<path d="M100.917 16.6341L106.665 11.7473L104.713 4.91057L106.291 5.38552L107.795 10.9346L107.826 10.9438L112.143 7.14696L113.645 7.59884L108.252 12.1917L110.339 19.4699L108.715 18.9811L107.122 13.0044L107.092 12.9952L102.434 17.0906L100.917 16.6341Z" fill="white"/>
<path d="M124.544 12.717C126.735 13.8781 127.495 15.9645 126.453 17.9297C125.405 19.9091 123.252 20.4523 121.046 19.2838L118.332 17.8455L116.047 22.1576L114.831 21.5134L120.599 10.6271L124.544 12.717ZM121.655 18.339C123.055 19.0806 124.475 18.6561 125.209 17.2705C125.936 15.8991 125.482 14.4999 124.082 13.7583L121.283 12.2751L118.856 16.8558L121.655 18.339Z" fill="white"/>
<path d="M128.121 28.3348L132.636 31.9114L131.911 32.827L126.317 28.3959L133.967 18.7388L135.046 19.5932L128.121 28.3348Z" fill="white"/>
<path d="M137.943 39.5609C135.877 37.1379 136.431 33.8906 139.316 31.4305C142.202 28.9704 145.496 28.9376 147.562 31.3606C149.617 33.7714 149.074 37.0308 146.188 39.4909C143.302 41.951 139.998 41.9717 137.943 39.5609ZM138.844 38.7928C140.359 40.5705 142.914 40.4107 145.264 38.4073C147.614 36.4039 148.176 33.9064 146.661 32.1287C145.145 30.351 142.58 30.4986 140.23 32.502C137.88 34.5054 137.328 37.0151 138.844 38.7928Z" fill="white"/>
<path d="M148.631 56.036L147.897 54.6687L151.188 49.6692L151.104 49.5142L149.56 46.6385L144.922 49.1289L144.272 47.9166L155.126 42.0882L157.313 46.162C158.509 48.3892 158.12 50.5051 156.316 51.474C154.807 52.2839 153.217 51.9938 152.022 50.7831L148.631 56.036ZM154.776 43.8379L150.519 46.1238L152.108 49.084C152.873 50.5078 154.254 50.9829 155.565 50.2789C156.805 49.6128 157.122 48.2077 156.358 46.784L154.776 43.8379Z" fill="white"/>
<path d="M151.829 61.7515L153.767 68.2027L152.679 68.5295L150.346 60.7605L162.145 57.2162L164.423 64.8014L163.335 65.1282L161.453 58.8608L157.377 60.0852L159.094 65.8009L158.006 66.1277L156.289 60.412L151.829 61.7515Z" fill="white"/>
<path d="M165.919 95.6758L165.833 97.0811L153.742 92.971L153.847 91.2623L164.701 89.1567L164.703 89.1247L154.187 85.7367L154.292 84.0279L166.796 81.4147L166.705 82.8999L155.658 85.0256L155.656 85.0576L166.358 88.5372L166.265 90.0544L155.219 92.1642L155.217 92.1961L165.919 95.6758Z" fill="white"/>
<path d="M152.114 100.372L164.031 103.496L163.682 104.827L151.765 101.703L152.114 100.372Z" fill="white"/>
<path d="M157.916 120.224L156.873 119.773L158.386 116.278L148.123 111.835L148.663 110.587L158.927 115.03L160.44 111.536L161.482 111.987L157.916 120.224Z" fill="white"/>
<path d="M149.925 132.814L149.137 133.942L139.036 126.889L139.824 125.76L144.494 129.021L148.103 123.853L143.433 120.592L144.221 119.464L154.322 126.517L153.534 127.645L149.035 124.503L145.426 129.672L149.925 132.814Z" fill="white"/>
<path d="M125.221 139.4C127.399 137.824 129.911 138.239 131.495 140.43L136.166 146.885L135.051 147.692L130.324 141.158C129.18 139.577 127.419 139.271 125.889 140.378C124.359 141.484 124.073 143.271 125.217 144.853L129.943 151.387L128.893 152.146L124.223 145.69C122.638 143.5 123.03 140.984 125.221 139.4Z" fill="white"/>
<path d="M113.328 146.162C115.762 145.06 118.168 145.797 119.344 148.004L118.164 148.697C117.29 147.038 115.536 146.462 113.802 147.247C111.98 148.072 111.16 149.48 111.754 150.792C112.493 152.424 114.213 152.032 115.978 151.549C117.953 151.023 120.12 150.533 121.111 152.719C121.969 154.614 120.933 156.594 118.543 157.676C116.269 158.706 114.012 157.989 112.898 155.877L114.077 155.185C114.891 156.748 116.495 157.304 118.098 156.578C119.716 155.845 120.423 154.576 119.876 153.367C119.242 151.967 117.681 152.323 115.995 152.788C113.947 153.347 111.621 153.873 110.526 151.454C109.621 149.457 110.734 147.337 113.328 146.162Z" fill="white"/>
<path d="M95.3254 154.817C96.2286 154.69 96.9242 155.159 97.0439 156.014C97.1637 156.87 96.6255 157.527 95.7223 157.653C94.8033 157.782 94.1213 157.296 94.0016 156.44C93.8819 155.584 94.4064 154.945 95.3254 154.817Z" fill="white"/>
</g>
<defs>
<filter id="filter0_d_1_1435" x="0.684875" y="2.81665" width="170.112" height="169.745" filterUnits="userSpaceOnUse" color-interpolation-filters="sRGB">
<feFlood flood-opacity="0" result="BackgroundImageFix"/>
<feColorMatrix in="SourceAlpha" type="matrix" values="0 0 0 0 0 0 0 0 0 0 0 0 0 0 0 0 0 0 127 0" result="hardAlpha"/>
<feOffset dy="4"/>
<feGaussianBlur stdDeviation="2"/>
<feComposite in2="hardAlpha" operator="out"/>
<feColorMatrix type="matrix" values="0 0 0 0 0 0 0 0 0 0 0 0 0 0 0 0 0 0 0.25 0"/>
<feBlend mode="normal" in2="BackgroundImageFix" result="effect1_dropShadow_1_1435"/>
<feBlend mode="normal" in="SourceGraphic" in2="effect1_dropShadow_1_1435" result="shape"/>
</filter>
</defs>
</svg>
