<svg width="22" height="20" viewBox="0 0 22 20" fill="none" xmlns="http://www.w3.org/2000/svg">
<path d="M22 12.2727V20H17.313V12.7727C17.313 10.7424 16.5159 9.72727 14.9217 9.72727C13.742 9.72727 12.929 10.2727 12.4826 11.3636C12.387 11.5758 12.3391 11.9394 12.3391 12.4545V20H7.60435C7.63623 11.8485 7.63623 7.34848 7.60435 6.5H12.3391V8.40909L12.2913 8.45455H12.3391V8.40909C13.3594 6.92424 14.7783 6.18182 16.5957 6.18182C18.2217 6.18182 19.529 6.69697 20.5174 7.72727C21.5058 8.75758 22 10.2727 22 12.2727ZM2.67826 0C1.88116 0 1.23551 0.219697 0.741304 0.659091C0.247101 1.09848 0 1.65152 0 2.31818C0 2.98485 0.23913 3.54545 0.717391 4C1.19565 4.45455 1.81739 4.68182 2.58261 4.68182H2.63043C3.42754 4.68182 4.07319 4.45455 4.56739 4C5.06159 3.54545 5.3087 2.98485 5.3087 2.31818C5.27681 1.65152 5.02174 1.09848 4.54348 0.659091C4.06522 0.219697 3.44348 0 2.67826 0ZM0.23913 20H4.97391V6.5H0.23913V20Z" fill="white"/>
</svg>
