<svg width="45" height="45" viewBox="0 0 45 45" fill="none" xmlns="http://www.w3.org/2000/svg">
<path d="M22.7447 32.3433L14.245 24.3051C14.1681 24.2325 14.1064 24.1426 14.0642 24.0417C14.0219 23.9408 14 23.8312 14 23.7203C14 23.6093 14.0219 23.4997 14.0642 23.3988C14.1064 23.2979 14.1681 23.208 14.245 23.1354L22.7447 15.0996C22.7703 15.0753 22.8018 15.0596 22.8354 15.0543C22.869 15.0489 22.9033 15.0542 22.9342 15.0695C22.9651 15.0849 22.9913 15.1095 23.0097 15.1406C23.0282 15.1717 23.038 15.2079 23.038 15.2449L23.038 17.2066C23.038 17.318 22.9936 17.4246 22.9158 17.4997L17.3094 22.8012L29.8222 22.8012C29.92 22.8012 30 22.8883 30 22.9949L30 24.448C30 24.5546 29.92 24.6418 29.8222 24.6418L17.3094 24.6418L22.9158 29.9432C22.9936 30.0159 23.038 30.1225 23.038 30.2363L23.038 32.198C23.038 32.3627 22.8603 32.4523 22.7447 32.3433Z" fill="white"/>
<circle cx="22.5" cy="22.5" r="22" transform="matrix(-1 0 0 1 45 0)" stroke="white"/>
</svg>
