<svg width="45" height="45" viewBox="0 0 45 45" fill="none" xmlns="http://www.w3.org/2000/svg">
<path d="M22.2553 32.3433L30.755 24.3051C30.8319 24.2325 30.8936 24.1426 30.9358 24.0417C30.9781 23.9408 31 23.8312 31 23.7203C31 23.6093 30.9781 23.4997 30.9358 23.3988C30.8936 23.2979 30.8319 23.208 30.755 23.1354L22.2553 15.0996C22.2297 15.0753 22.1982 15.0596 22.1646 15.0543C22.131 15.0489 22.0967 15.0542 22.0658 15.0695C22.0349 15.0849 22.0087 15.1095 21.9903 15.1406C21.9718 15.1717 21.962 15.2079 21.962 15.2449L21.962 17.2066C21.962 17.318 22.0064 17.4246 22.0842 17.4997L27.6906 22.8012L15.1778 22.8012C15.08 22.8012 15 22.8883 15 22.9949L15 24.448C15 24.5546 15.08 24.6418 15.1778 24.6418L27.6906 24.6418L22.0842 29.9432C22.0064 30.0159 21.962 30.1225 21.962 30.2363L21.962 32.198C21.962 32.3627 22.1397 32.4523 22.2553 32.3433Z" fill="white"/>
<circle cx="22.5" cy="22.5" r="22" stroke="white"/>
</svg>
